<svg xmlns="http://www.w3.org/2000/svg" viewBox="0 0 64 64" id="tea"><g data-name="tea cup" fill="#3d1a0c" class="color000000 svgShape"><path d="M49.72,62H29.28a5,5,0,0,1-4.9-4L18,26a5,5,0,0,1,4.9-6H56.12A5,5,0,0,1,61,26l-6.4,32A5,5,0,0,1,49.72,62ZM22.88,22a3,3,0,0,0-2.94,3.59l6.4,32A3,3,0,0,0,29.28,60H49.72a3,3,0,0,0,2.94-2.41l6.4-32A3,3,0,0,0,56.12,22Z" fill="#3d1a0c" class="color000000 svgShape"></path><path d="M22.6,45H21.55a18.11,18.11,0,0,1-10.89-3.42A10.76,10.76,0,0,1,6,33a1,1,0,0,1,1-1H20.4a1,1,0,0,1,0,2H8.07a9.12,9.12,0,0,0,3.79,6,16.08,16.08,0,0,0,9.69,3H22.6a1,1,0,0,1,0,2Z" fill="#3d1a0c" class="color000000 svgShape"></path><path d="M23 49C11.42 49 2 41.45 2 32.17V31.11A3.43 3.43 0 0 1 5.67 28H19.6a1 1 0 0 1 0 2H5.67c-1 0-1.67.58-1.67 1.11v1.06C4 40.35 12.52 47 23 47a1 1 0 0 1 0 2zM38 41c-3.59 0-6.35-.94-8.2-2.79S27 33.59 27 30a1 1 0 0 1 .29-.71A1.05 1.05 0 0 1 28 29h0c7.19 0 11 3.81 11 11a1 1 0 0 1-.29.71A1 1 0 0 1 38 41zM29 31a8.61 8.61 0 0 0 2.18 5.77A8.61 8.61 0 0 0 37 39C36.68 33.87 34.13 31.32 29 31zM41 41a1 1 0 0 1-1-1c0-7.19 3.81-11 11-11h0a1.05 1.05 0 0 1 .71.29A1 1 0 0 1 52 30c0 3.59-.94 6.36-2.79 8.21S44.6 41 41 41zm9-10c-5.1.29-7.65 2.84-7.94 7.94a8.61 8.61 0 0 0 5.76-2.17A8.61 8.61 0 0 0 50 31z" fill="#3d1a0c" class="color000000 svgShape"></path><path d="M39.5 45a1 1 0 0 1-.81-.42l-6.5-9a1 1 0 1 1 1.62-1.18l5.69 7.87 5.69-7.87a1 1 0 1 1 1.62 1.18l-6.5 9A1 1 0 0 1 39.5 45zM54.8 53H24.2a1 1 0 0 1 0-2H54.8a1 1 0 0 1 0 2zM30 18a1 1 0 0 1-.65-.24c-3.16-2.71-1.44-5.37-.19-7.3 1.37-2.11 1.95-3.19.19-4.7a1 1 0 0 1 1.3-1.52c3.16 2.71 1.44 5.37.19 7.3-1.37 2.11-1.95 3.19-.19 4.7A1 1 0 0 1 30 18zM40 18a1 1 0 0 1-.65-.24c-3.16-2.71-1.44-5.37-.19-7.3 1.37-2.11 2-3.19.19-4.7a1 1 0 1 1 1.3-1.52c3.16 2.71 1.44 5.37.19 7.3-1.37 2.11-2 3.19-.19 4.7A1 1 0 0 1 40 18zM50 18a1 1 0 0 1-.65-.24c-3.16-2.71-1.44-5.37-.19-7.3 1.37-2.11 2-3.19.19-4.7a1 1 0 1 1 1.3-1.52c3.16 2.71 1.44 5.37.19 7.3-1.37 2.11-2 3.19-.19 4.7A1 1 0 0 1 50 18z" fill="#3d1a0c" class="color000000 svgShape"></path></g></svg>